<svg width="24" height="24" viewBox="0 0 24 24" fill="none" xmlns="http://www.w3.org/2000/svg">
<path d="M16.0021 8.80085C16.0021 7.52759 15.4963 6.30647 14.596 5.40614C13.6957 4.5058 12.4745 4 11.2013 4C9.92801 4 8.7069 4.5058 7.80656 5.40614C6.90623 6.30647 6.40043 7.52759 6.40043 8.80085C6.40043 14.4018 4 16.0021 4 16.0021H18.4026C18.4026 16.0021 16.0021 14.4018 16.0021 8.80085Z" stroke="#090F47" stroke-width="1.2" stroke-linecap="round" stroke-linejoin="round"/>
<path d="M12.5854 19.2026C12.4447 19.4451 12.2428 19.6464 11.9999 19.7864C11.7569 19.9263 11.4815 19.9999 11.2011 19.9999C10.9208 19.9999 10.6454 19.9263 10.4024 19.7864C10.1595 19.6464 9.95757 19.4451 9.81689 19.2026" stroke="#090F47" stroke-width="1.2" stroke-linecap="round" stroke-linejoin="round"/>
<circle cx="16" cy="7" r="3.5" fill="#FF0000" stroke="white"/>
</svg>
