<svg width="16" height="18" viewBox="0 0 16 18" fill="none" xmlns="http://www.w3.org/2000/svg">
<path d="M13.55 17C13.55 17.4142 13.8858 17.75 14.3 17.75C14.7143 17.75 15.05 17.4142 15.05 17H13.55ZM0.550049 17C0.550049 17.4142 0.885835 17.75 1.30005 17.75C1.71426 17.75 2.05005 17.4142 2.05005 17H0.550049ZM7.80005 10.1711C10.483 10.1711 12.6125 7.92462 12.6125 5.21053H11.1125C11.1125 7.14725 9.60442 8.67105 7.80005 8.67105V10.1711ZM12.6125 5.21053C12.6125 2.49643 10.483 0.25 7.80005 0.25V1.75C9.60442 1.75 11.1125 3.2738 11.1125 5.21053H12.6125ZM7.80005 0.25C5.1171 0.25 2.98755 2.49643 2.98755 5.21053H4.48755C4.48755 3.2738 5.99568 1.75 7.80005 1.75V0.25ZM2.98755 5.21053C2.98755 7.92462 5.1171 10.1711 7.80005 10.1711V8.67105C5.99568 8.67105 4.48755 7.14725 4.48755 5.21053H2.98755ZM15.05 17C15.05 12.8907 11.8292 9.51316 7.80005 9.51316V11.0132C10.9506 11.0132 13.55 13.668 13.55 17H15.05ZM7.80005 9.51316C3.77091 9.51316 0.550049 12.8907 0.550049 17H2.05005C2.05005 13.668 4.64949 11.0132 7.80005 11.0132V9.51316Z" fill="#ADB3BC"/>
</svg>
