<svg width="16" height="20" viewBox="0 0 16 20" fill="none" xmlns="http://www.w3.org/2000/svg">
<path d="M14.959 2.6424H11.7575V1.35241C11.7575 0.606685 11.1509 0 10.4051 0H5.59514C4.84941 0 4.24273 0.606685 4.24273 1.35241V2.6424H1.04123C0.537333 2.6424 0.127441 3.05229 0.127441 3.55619V5.23092C0.127441 5.73482 0.537333 6.14471 1.04123 6.14471H1.57197V18.7206C1.57197 19.4261 2.1459 19.9999 2.85128 19.9999H13.1489C13.8543 19.9999 14.4282 19.4261 14.4282 18.7206V6.14478H14.959C15.4629 6.14478 15.8728 5.73489 15.8728 5.23099V3.55619C15.8728 3.05236 15.4629 2.6424 14.959 2.6424ZM5.33928 1.35241C5.33928 1.21374 5.45647 1.09655 5.59514 1.09655H10.4051C10.5438 1.09655 10.661 1.21374 10.661 1.35241V2.6424H5.33928V1.35241ZM13.3317 18.7207C13.3317 18.8197 13.248 18.9034 13.1489 18.9034H2.85128C2.75222 18.9034 2.66852 18.8197 2.66852 18.7207V6.14478H13.3317V18.7207ZM14.7763 5.04823H1.22399V3.73895H14.7763V5.04823Z" fill="#ADB3BC"/>
<path d="M4.79101 17.3533C5.0938 17.3533 5.33928 17.1078 5.33928 16.805V8.44125C5.33928 8.13846 5.0938 7.89298 4.79101 7.89298C4.48814 7.89298 4.24273 8.13846 4.24273 8.44125V16.805C4.24273 17.1078 4.48814 17.3533 4.79101 17.3533Z" fill="#ADB3BC"/>
<path d="M8.00018 17.3533C8.30304 17.3533 8.54845 17.1078 8.54845 16.805V8.44125C8.54845 8.13846 8.30304 7.89298 8.00018 7.89298C7.69731 7.89298 7.4519 8.13846 7.4519 8.44125V16.805C7.4519 17.1078 7.69738 17.3533 8.00018 17.3533Z" fill="#ADB3BC"/>
<path d="M11.2093 17.3533C11.5121 17.3533 11.7575 17.1078 11.7575 16.805V8.44125C11.7575 8.13846 11.5121 7.89298 11.2093 7.89298C10.9064 7.89298 10.661 8.13846 10.661 8.44125V16.805C10.661 17.1078 10.9064 17.3533 11.2093 17.3533Z" fill="#ADB3BC"/>
</svg>
