<svg width="25" height="24" viewBox="0 0 25 24" fill="none" xmlns="http://www.w3.org/2000/svg">
<path d="M11.2637 3.00061C9.80736 3.00061 8.38368 3.43248 7.17275 4.2416C5.96181 5.05072 5.018 6.20076 4.46067 7.54628C3.90334 8.8918 3.75751 10.3724 4.04164 11.8008C4.32576 13.2292 5.02708 14.5412 6.0569 15.571C7.08671 16.6009 8.39878 17.3022 9.82717 17.5863C11.2556 17.8704 12.7361 17.7246 14.0817 17.1673C15.4272 16.6099 16.5772 15.6661 17.3863 14.4552C18.1955 13.2443 18.6273 11.8206 18.6273 10.3642C18.6272 8.41129 17.8514 6.53841 16.4704 5.15749C15.0895 3.77658 13.2166 3.00073 11.2637 3.00061V3.00061Z" stroke="#37B9C5" stroke-width="2" stroke-miterlimit="10"/>
<path d="M16.7573 15.8573L21.9 21" stroke="#37B9C5" stroke-width="2" stroke-miterlimit="10" stroke-linecap="round"/>
</svg>
